<?xml version="1.0" standalone="no"?>
<!DOCTYPE svg PUBLIC "-//W3C//DTD SVG 20010904//EN"
 "http://www.w3.org/TR/2001/REC-SVG-20010904/DTD/svg10.dtd">
<svg version="1.0" xmlns="http://www.w3.org/2000/svg"
 width="1148.000000pt" height="1148.000000pt" viewBox="0 0 1148.000000 1148.000000"
 preserveAspectRatio="xMidYMid meet">
<metadata>
Created by potrace 1.14, written by Peter Selinger 2001-2017
</metadata>
<g transform="translate(0.000000,1148.000000) scale(0.100000,-0.100000)"
fill="#000000" stroke="none">
<path d="M4395 9971 c-3 -5 -2 -12 3 -15 5 -3 9 1 9 9 0 17 -3 19 -12 6z"/>
<path d="M5835 9971 c-3 -5 -2 -12 3 -15 5 -3 9 1 9 9 0 17 -3 19 -12 6z"/>
<path d="M6209 9723 c-13 -16 -12 -17 4 -4 9 7 17 15 17 17 0 8 -8 3 -21 -13z"/>
<path d="M3706 9678 c3 -5 10 -6 15 -3 13 9 11 12 -6 12 -8 0 -12 -4 -9 -9z"/>
<path d="M4195 9680 c-3 -5 -1 -10 4 -10 6 0 11 5 11 10 0 6 -2 10 -4 10 -3 0
-8 -4 -11 -10z"/>
<path d="M4593 9675 c0 -8 4 -12 9 -9 5 3 6 10 3 15 -9 13 -12 11 -12 -6z"/>
<path d="M4750 9680 c0 -5 5 -10 11 -10 5 0 7 5 4 10 -3 6 -8 10 -11 10 -2 0
-4 -4 -4 -10z"/>
<path d="M6100 9646 c0 -2 8 -10 18 -17 15 -13 16 -12 3 4 -13 16 -21 21 -21
13z"/>
<path d="M5509 9603 c-13 -16 -12 -17 4 -4 9 7 17 15 17 17 0 8 -8 3 -21 -13z"/>
<path d="M2720 9565 c0 -2 6 -8 13 -14 10 -8 14 -7 14 2 0 8 -6 14 -14 14 -7
0 -13 -1 -13 -2z"/>
<path d="M5265 9560 c-3 -6 1 -7 9 -4 18 7 21 14 7 14 -6 0 -13 -4 -16 -10z"/>
<path d="M7299 9553 c-13 -16 -12 -17 4 -4 9 7 17 15 17 17 0 8 -8 3 -21 -13z"/>
<path d="M7235 9531 c-3 -5 -2 -12 3 -15 5 -3 9 1 9 9 0 17 -3 19 -12 6z"/>
<path d="M7359 9538 c-5 -18 -6 -38 -1 -34 7 8 12 36 6 36 -2 0 -4 -1 -5 -2z"/>
<path d="M5500 9526 c0 -2 8 -10 18 -17 15 -13 16 -12 3 4 -13 16 -21 21 -21
13z"/>
<path d="M3119 9473 c-13 -16 -12 -17 4 -4 16 13 21 21 13 21 -2 0 -10 -8 -17
-17z"/>
<path d="M3801 9436 c-16 -19 -166 -22 -154 -3 5 9 3 9 -8 1 -8 -6 -47 -12
-87 -13 -58 -1 -72 1 -66 11 6 10 5 10 -7 1 -19 -15 -139 -15 -158 0 -12 9
-13 9 -7 0 5 -10 -6 -13 -46 -13 -30 0 -60 6 -67 13 -10 9 -12 9 -7 0 5 -9
-81 -12 -381 -14 -439 -1 -434 -1 -488 -23 -77 -31 -121 -58 -169 -103 -13
-12 -27 -19 -30 -16 -3 4 -6 1 -6 -6 0 -7 -12 -30 -28 -50 -22 -29 -60 -97
-67 -121 -19 -63 -23 -102 -24 -203 -1 -60 -4 -76 -13 -71 -10 6 -10 5 -1 -7
17 -21 17 -1157 0 -1178 -9 -11 -9 -13 0 -8 17 10 17 -2171 0 -2192 -9 -11 -9
-13 0 -8 8 5 11 -205 10 -847 -1 -470 1 -852 5 -850 4 3 6 -4 6 -13 -2 -20 17
-83 35 -123 44 -95 137 -192 220 -229 82 -36 98 -41 126 -41 15 0 30 -3 34 -6
3 -4 329 -6 724 -6 536 0 721 -2 732 -11 9 -8 12 -8 8 -1 -4 8 99 11 366 12
311 0 376 -2 395 -14 12 -8 20 -19 17 -24 -4 -6 -1 -10 5 -10 7 0 9 -7 6 -16
-3 -8 -2 -13 3 -10 9 6 78 -84 73 -96 -1 -5 5 -8 13 -8 8 0 15 -3 15 -7 0 -5
12 -21 26 -38 87 -101 109 -128 106 -137 -1 -5 1 -7 6 -4 8 4 43 -28 39 -36
-1 -1 0 -2 2 -1 2 2 10 -2 18 -8 11 -10 11 -15 1 -28 -11 -14 -11 -14 3 -3 14
11 21 8 42 -18 14 -16 28 -30 31 -30 6 0 36 -26 93 -78 14 -12 50 -42 81 -65
32 -23 59 -44 62 -47 9 -9 144 -97 168 -109 12 -7 20 -17 16 -23 -4 -7 -3 -8
5 -4 6 4 34 -6 61 -23 28 -17 55 -31 60 -31 6 0 10 -5 10 -10 0 -6 3 -9 8 -9
15 3 91 -34 86 -42 -3 -5 2 -6 10 -3 10 4 16 1 16 -7 0 -7 3 -9 6 -6 4 4 19 0
33 -7 14 -8 58 -26 96 -41 39 -15 85 -33 103 -41 18 -8 42 -14 53 -14 13 0 18
-4 13 -12 -4 -6 -3 -9 2 -5 5 3 61 -8 124 -25 142 -37 140 -36 168 -37 13 -1
21 -5 18 -9 -3 -4 12 -7 32 -6 20 1 41 -1 46 -4 11 -6 15 -7 136 -17 47 -4 90
-11 97 -16 7 -6 12 -6 15 1 2 8 11 8 30 1 18 -7 29 -7 33 0 4 5 11 6 18 2 13
-8 226 -7 234 1 3 3 15 1 26 -5 14 -8 18 -8 13 0 -5 7 9 11 41 12 46 1 77 3
98 9 22 5 36 0 29 -12 -4 -7 1 -5 12 4 10 9 42 19 69 23 28 3 67 10 89 16 21
6 44 8 52 5 8 -3 14 -2 14 3 0 4 26 14 58 21 74 18 72 17 75 20 1 1 9 3 17 5
8 2 29 8 47 13 17 6 34 8 37 4 3 -3 6 0 6 7 0 8 7 11 15 7 8 -3 15 -2 15 2 0
6 27 17 85 36 17 5 48 18 114 47 35 16 68 26 74 22 6 -4 7 -1 2 7 -6 10 -3 12
13 8 12 -4 20 -3 18 1 -3 4 30 25 72 47 42 21 83 45 90 52 7 6 20 12 28 12 8
0 14 4 14 8 0 5 20 19 45 32 25 13 50 29 56 37 6 7 18 13 25 13 8 0 14 4 14
10 0 5 13 16 29 24 22 12 31 12 42 3 11 -10 11 -9 1 4 -9 12 -7 19 8 32 11 9
20 15 20 13 0 -5 37 25 71 57 10 9 19 14 19 10 0 -4 7 3 16 15 8 12 20 19 26
16 7 -4 8 -2 4 4 -3 6 2 15 12 21 10 5 51 43 92 85 40 41 78 72 83 69 6 -3 7
-1 3 5 -4 6 1 20 11 30 58 61 104 115 148 174 27 38 52 68 57 68 4 0 7 3 6 8
-3 11 53 92 61 88 4 -3 7 3 8 13 1 10 15 38 31 62 16 24 44 71 62 104 17 33
36 59 42 57 5 -1 7 2 4 7 -10 15 13 63 26 55 7 -4 8 -3 4 5 -10 16 3 53 16 45
6 -4 8 -3 5 3 -8 12 22 93 34 93 5 0 6 7 3 15 -4 8 -1 15 5 15 6 0 10 3 9 8
-1 4 13 52 31 107 28 85 52 165 76 260 7 27 18 87 18 103 0 6 3 12 7 12 4 0 6
10 5 22 -1 11 2 44 7 72 24 150 41 497 24 513 -3 4 -1 12 5 19 7 8 7 14 -1 19
-8 5 -7 11 2 23 7 9 8 13 3 10 -7 -4 -15 33 -23 105 -13 119 -21 169 -28 176
-2 2 2 11 9 19 7 10 7 13 1 9 -10 -6 -31 65 -39 128 0 6 -6 29 -13 53 -7 23
-10 48 -6 55 4 6 3 9 -1 4 -8 -7 -75 170 -78 208 -1 11 -8 26 -15 34 -7 7 -10
21 -7 29 3 9 3 13 -1 9 -4 -4 -23 28 -41 71 -19 42 -38 84 -43 92 -6 8 -24 42
-41 74 -17 33 -42 77 -56 97 -14 22 -22 43 -17 50 4 7 3 9 -4 5 -6 -3 -20 11
-33 34 -13 22 -27 40 -33 40 -5 0 -7 3 -3 6 3 4 -1 13 -9 21 -29 29 -73 101
-66 108 4 3 2 5 -3 3 -6 -2 -37 29 -70 67 -32 39 -74 85 -92 103 -18 18 -30
38 -27 44 4 6 2 8 -4 4 -6 -3 -19 4 -29 17 -10 12 -28 30 -41 39 l-23 16 23
16 c12 9 17 16 11 16 -7 0 -15 -4 -18 -10 -10 -16 -18 -12 -70 35 -28 25 -54
45 -59 45 -4 0 -5 7 -2 16 3 8 2 12 -4 9 -6 -3 -38 15 -72 42 -78 60 -88 69
-82 76 3 3 -3 4 -13 4 -9 -1 -18 3 -18 10 0 6 -4 15 -9 20 -5 5 -6 3 -2 -4 11
-19 -2 -16 -35 8 -26 18 -28 23 -17 37 12 15 11 16 -4 3 -18 -14 -53 -8 -44 8
3 5 0 8 -7 7 -6 0 -12 3 -12 9 0 5 4 9 8 7 5 -1 6 2 2 8 -5 8 -11 8 -20 0 -21
-17 -39 -2 -23 18 11 15 11 15 -3 4 -17 -13 -49 -7 -49 9 0 5 -6 8 -12 6 -10
-1 -13 101 -15 483 -1 444 0 486 15 499 16 13 16 13 0 8 -16 -6 -18 1 -18 65
0 54 4 77 18 92 14 17 14 18 1 8 -16 -12 -17 16 -18 369 -1 210 -4 393 -7 408
-9 43 -46 134 -66 163 -10 14 -18 29 -18 32 0 9 -96 100 -121 115 -43 26 -115
59 -144 67 -49 12 -135 14 -588 15 -394 0 -516 3 -510 12 5 9 3 9 -8 1 -9 -8
-96 -11 -266 -12 -229 0 -251 1 -247 17 5 13 4 13 -6 -1 -8 -14 -25 -18 -67
-18 -51 0 -54 1 -42 18 13 16 13 16 -6 0 -18 -14 -51 -16 -272 -16 -231 -1
-251 1 -247 16 5 15 4 15 -6 0 -8 -14 -25 -18 -67 -18 -51 0 -54 1 -42 18 13
16 12 16 -6 1 -17 -14 -47 -17 -193 -17 -159 0 -172 1 -160 16 11 14 9 14 -8
0 -14 -12 -38 -18 -72 -18 -44 0 -51 2 -46 18 5 15 4 15 -5 1 -9 -15 -35 -17
-187 -17 -163 -1 -174 1 -162 16 11 15 10 15 -8 0 -14 -12 -38 -18 -74 -18
-48 0 -51 1 -39 18 13 16 13 16 -6 0 -17 -14 -46 -16 -193 -17 -161 0 -173 1
-160 17 12 16 11 16 -7 0 -24 -20 -130 -24 -119 -5 5 8 3 8 -7 0 -7 -7 -37
-13 -67 -13 -47 0 -53 2 -42 15 7 8 10 15 7 15 -2 0 -10 -6 -16 -14z"/>
<path d="M1956 8527 c3 -10 9 -15 12 -12 3 3 0 11 -7 18 -10 9 -11 8 -5 -6z"/>
<path d="M8346 8238 c3 -5 10 -6 15 -3 13 9 11 12 -6 12 -8 0 -12 -4 -9 -9z"/>
<path d="M8395 8209 c-4 -6 -5 -12 -2 -15 2 -3 7 2 10 11 7 17 1 20 -8 4z"/>
<path d="M1825 8040 c-3 -6 1 -7 9 -4 18 7 21 14 7 14 -6 0 -13 -4 -16 -10z"/>
<path d="M1400 8000 c-9 -6 -10 -10 -3 -10 6 0 15 5 18 10 8 12 4 12 -15 0z"/>
<path d="M8156 7962 c-3 -5 1 -9 9 -9 8 0 12 4 9 9 -3 4 -7 8 -9 8 -2 0 -6 -4
-9 -8z"/>
<path d="M8145 7880 c-3 -6 1 -7 9 -4 18 7 21 14 7 14 -6 0 -13 -4 -16 -10z"/>
<path d="M8196 7842 c-3 -5 1 -9 9 -9 8 0 12 4 9 9 -3 4 -7 8 -9 8 -2 0 -6 -4
-9 -8z"/>
<path d="M8160 7760 c-9 -6 -10 -10 -3 -10 6 0 15 5 18 10 8 12 4 12 -15 0z"/>
<path d="M1720 7560 c-9 -6 -10 -10 -3 -10 6 0 15 5 18 10 8 12 4 12 -15 0z"/>
<path d="M8190 7380 c0 -5 5 -10 11 -10 5 0 7 5 4 10 -3 6 -8 10 -11 10 -2 0
-4 -4 -4 -10z"/>
<path d="M8256 7358 c3 -5 10 -6 15 -3 13 9 11 12 -6 12 -8 0 -12 -4 -9 -9z"/>
<path d="M8146 7318 c3 -5 10 -6 15 -3 13 9 11 12 -6 12 -8 0 -12 -4 -9 -9z"/>
<path d="M8134 7276 c1 -8 5 -18 8 -22 4 -3 5 1 4 10 -1 8 -5 18 -8 22 -4 3
-5 -1 -4 -10z"/>
<path d="M8170 7265 c0 -5 5 -17 10 -25 5 -8 10 -10 10 -5 0 6 -5 17 -10 25
-5 8 -10 11 -10 5z"/>
<path d="M8276 7233 c-6 -14 -5 -15 5 -6 7 7 10 15 7 18 -3 3 -9 -2 -12 -12z"/>
<path d="M8213 7191 c0 -11 5 -18 9 -15 4 3 5 11 1 19 -7 21 -12 19 -10 -4z"/>
<path d="M8135 7140 c-3 -5 -1 -10 4 -10 6 0 11 5 11 10 0 6 -2 10 -4 10 -3 0
-8 -4 -11 -10z"/>
<path d="M8214 7136 c1 -8 5 -18 8 -22 4 -3 5 1 4 10 -1 8 -5 18 -8 22 -4 3
-5 -1 -4 -10z"/>
<path d="M8256 7062 c-3 -4 4 -9 15 -9 23 -2 25 3 4 10 -8 4 -16 3 -19 -1z"/>
<path d="M1715 7040 c-3 -5 -1 -10 4 -10 6 0 11 5 11 10 0 6 -2 10 -4 10 -3 0
-8 -4 -11 -10z"/>
<path d="M8815 7011 c-3 -5 -2 -12 3 -15 5 -3 9 1 9 9 0 17 -3 19 -12 6z"/>
<path d="M8395 6981 c-3 -5 -2 -12 3 -15 5 -3 9 1 9 9 0 17 -3 19 -12 6z"/>
<path d="M1919 6953 c-13 -16 -12 -17 4 -4 9 7 17 15 17 17 0 8 -8 3 -21 -13z"/>
<path d="M1946 6722 c-3 -5 1 -9 9 -9 8 0 12 4 9 9 -3 4 -7 8 -9 8 -2 0 -6 -4
-9 -8z"/>
<path d="M8990 6640 c0 -5 5 -10 11 -10 5 0 7 5 4 10 -3 6 -8 10 -11 10 -2 0
-4 -4 -4 -10z"/>
<path d="M8876 6602 c-3 -5 1 -9 9 -9 8 0 12 4 9 9 -3 4 -7 8 -9 8 -2 0 -6 -4
-9 -8z"/>
<path d="M8999 6513 c-13 -16 -12 -17 4 -4 9 7 17 15 17 17 0 8 -8 3 -21 -13z"/>
<path d="M1946 6482 c-3 -5 1 -9 9 -9 8 0 12 4 9 9 -3 4 -7 8 -9 8 -2 0 -6 -4
-9 -8z"/>
<path d="M1946 6242 c-3 -5 1 -9 9 -9 8 0 12 4 9 9 -3 4 -7 8 -9 8 -2 0 -6 -4
-9 -8z"/>
<path d="M1956 6193 c-6 -14 -5 -15 5 -6 7 7 10 15 7 18 -3 3 -9 -2 -12 -12z"/>
<path d="M9300 6046 c0 -2 8 -10 18 -17 15 -13 16 -12 3 4 -13 16 -21 21 -21
13z"/>
<path d="M1946 6002 c-3 -5 1 -9 9 -9 8 0 12 4 9 9 -3 4 -7 8 -9 8 -2 0 -6 -4
-9 -8z"/>
<path d="M9319 5793 c-13 -16 -12 -17 4 -4 16 13 21 21 13 21 -2 0 -10 -8 -17
-17z"/>
<path d="M1946 5762 c-3 -5 1 -9 9 -9 8 0 12 4 9 9 -3 4 -7 8 -9 8 -2 0 -6 -4
-9 -8z"/>
<path d="M1714 5569 c-3 -6 -2 -15 3 -20 5 -5 9 -1 9 11 0 23 -2 24 -12 9z"/>
<path d="M1596 5553 c-6 -14 -5 -15 5 -6 7 7 10 15 7 18 -3 3 -9 -2 -12 -12z"/>
<path d="M1720 5320 c-9 -6 -10 -10 -3 -10 6 0 15 5 18 10 8 12 4 12 -15 0z"/>
<path d="M9676 5322 c-3 -5 1 -9 9 -9 8 0 12 4 9 9 -3 4 -7 8 -9 8 -2 0 -6 -4
-9 -8z"/>
<path d="M9950 4800 c0 -5 5 -10 11 -10 5 0 7 5 4 10 -3 6 -8 10 -11 10 -2 0
-4 -4 -4 -10z"/>
<path d="M9626 4638 c3 -5 10 -6 15 -3 13 9 11 12 -6 12 -8 0 -12 -4 -9 -9z"/>
<path d="M9635 4571 c-3 -5 -2 -12 3 -15 5 -3 9 1 9 9 0 17 -3 19 -12 6z"/>
<path d="M9950 4480 c0 -5 5 -10 11 -10 5 0 7 5 4 10 -3 6 -8 10 -11 10 -2 0
-4 -4 -4 -10z"/>
<path d="M1876 4158 c3 -5 10 -6 15 -3 13 9 11 12 -6 12 -8 0 -12 -4 -9 -9z"/>
<path d="M1876 4073 c-6 -14 -5 -15 5 -6 7 7 10 15 7 18 -3 3 -9 -2 -12 -12z"/>
<path d="M9356 3367 c3 -10 9 -15 12 -12 3 3 0 11 -7 18 -10 9 -11 8 -5 -6z"/>
<path d="M3716 3293 c-6 -14 -5 -15 5 -6 7 7 10 15 7 18 -3 3 -9 -2 -12 -12z"/>
<path d="M4179 3308 c-5 -18 -6 -38 -1 -34 7 8 12 36 6 36 -2 0 -4 -1 -5 -2z"/>
<path d="M4294 3296 c1 -8 5 -18 8 -22 4 -3 5 1 4 10 -1 8 -5 18 -8 22 -4 3
-5 -1 -4 -10z"/>
<path d="M4435 3299 c-3 -4 2 -6 10 -5 21 3 28 13 10 13 -9 0 -18 -4 -20 -8z"/>
<path d="M4374 3276 c1 -8 5 -18 8 -22 4 -3 5 1 4 10 -1 8 -5 18 -8 22 -4 3
-5 -1 -4 -10z"/>
<path d="M4035 3269 c-4 -6 -5 -12 -2 -15 2 -3 7 2 10 11 7 17 1 20 -8 4z"/>
<path d="M4434 3262 c4 -3 14 -7 22 -8 9 -1 13 0 10 4 -4 3 -14 7 -22 8 -9 1
-13 0 -10 -4z"/>
<path d="M4575 3260 c3 -5 8 -10 11 -10 2 0 4 5 4 10 0 6 -5 10 -11 10 -5 0
-7 -4 -4 -10z"/>
<path d="M3556 3242 c-3 -5 1 -9 9 -9 8 0 12 4 9 9 -3 4 -7 8 -9 8 -2 0 -6 -4
-9 -8z"/>
<path d="M4533 3231 c0 -11 5 -18 9 -15 4 3 5 11 1 19 -7 21 -12 19 -10 -4z"/>
<path d="M4374 3216 c1 -8 5 -18 8 -22 4 -3 5 1 4 10 -1 8 -5 18 -8 22 -4 3
-5 -1 -4 -10z"/>
<path d="M4574 3216 c1 -8 5 -18 8 -22 4 -3 5 1 4 10 -1 8 -5 18 -8 22 -4 3
-5 -1 -4 -10z"/>
<path d="M4474 3206 c1 -8 5 -18 8 -22 4 -3 5 1 4 10 -1 8 -5 18 -8 22 -4 3
-5 -1 -4 -10z"/>
<path d="M2675 3201 c-3 -5 -2 -12 3 -15 5 -3 9 1 9 9 0 17 -3 19 -12 6z"/>
<path d="M4326 3182 c-3 -5 1 -9 9 -9 8 0 12 4 9 9 -3 4 -7 8 -9 8 -2 0 -6 -4
-9 -8z"/>
<path d="M4675 3179 c-3 -4 2 -6 10 -5 21 3 28 13 10 13 -9 0 -18 -4 -20 -8z"/>
<path d="M2610 3176 c0 -2 8 -10 18 -17 15 -13 16 -12 3 4 -13 16 -21 21 -21
13z"/>
<path d="M3826 3158 c3 -5 10 -6 15 -3 13 9 11 12 -6 12 -8 0 -12 -4 -9 -9z"/>
<path d="M4590 3159 c0 -5 5 -7 10 -4 6 3 10 8 10 11 0 2 -4 4 -10 4 -5 0 -10
-5 -10 -11z"/>
<path d="M4640 3140 c-12 -7 -10 -9 7 -7 12 0 19 5 17 9 -6 10 -6 10 -24 -2z"/>
<path d="M2956 3127 c3 -10 9 -15 12 -12 3 3 0 11 -7 18 -10 9 -11 8 -5 -6z"/>
<path d="M4190 3126 c0 -2 7 -7 16 -10 8 -3 12 -2 9 4 -6 10 -25 14 -25 6z"/>
<path d="M4275 3120 c3 -5 8 -10 11 -10 2 0 4 5 4 10 0 6 -5 10 -11 10 -5 0
-7 -4 -4 -10z"/>
<path d="M4693 3111 c0 -11 5 -18 9 -15 4 3 5 11 1 19 -7 21 -12 19 -10 -4z"/>
<path d="M4756 3107 c3 -10 9 -15 12 -12 3 3 0 11 -7 18 -10 9 -11 8 -5 -6z"/>
<path d="M2496 3078 c3 -5 10 -6 15 -3 13 9 11 12 -6 12 -8 0 -12 -4 -9 -9z"/>
<path d="M2910 3079 c0 -5 5 -7 10 -4 6 3 10 8 10 11 0 2 -4 4 -10 4 -5 0 -10
-5 -10 -11z"/>
<path d="M4756 3027 c3 -10 9 -15 12 -12 3 3 0 11 -7 18 -10 9 -11 8 -5 -6z"/>
<path d="M4835 3029 c-4 -6 -5 -12 -2 -15 2 -3 7 2 10 11 7 17 1 20 -8 4z"/>
<path d="M4230 2961 c0 -6 4 -13 10 -16 6 -3 7 1 4 9 -7 18 -14 21 -14 7z"/>
<path d="M5027 2799 c7 -7 15 -10 18 -7 3 3 -2 9 -12 12 -14 6 -15 5 -6 -5z"/>
<path d="M8670 2761 c0 -6 4 -13 10 -16 6 -3 7 1 4 9 -7 18 -14 21 -14 7z"/>
<path d="M5119 2713 c-13 -16 -12 -17 4 -4 9 7 17 15 17 17 0 8 -8 3 -21 -13z"/>
<path d="M4946 2678 c3 -5 10 -6 15 -3 13 9 11 12 -6 12 -8 0 -12 -4 -9 -9z"/>
<path d="M4835 2571 c-3 -5 -2 -12 3 -15 5 -3 9 1 9 9 0 17 -3 19 -12 6z"/>
<path d="M9075 2571 c-3 -5 -2 -12 3 -15 5 -3 9 1 9 9 0 17 -3 19 -12 6z"/>
<path d="M4873 2525 c0 -8 4 -12 9 -9 5 3 6 10 3 15 -9 13 -12 11 -12 -6z"/>
<path d="M4990 2536 c0 -2 8 -10 18 -17 15 -13 16 -12 3 4 -13 16 -21 21 -21
13z"/>
<path d="M8476 2462 c-3 -5 1 -9 9 -9 8 0 12 4 9 9 -3 4 -7 8 -9 8 -2 0 -6 -4
-9 -8z"/>
<path d="M4276 2438 c3 -5 10 -6 15 -3 13 9 11 12 -6 12 -8 0 -12 -4 -9 -9z"/>
<path d="M5675 2249 c-4 -6 -5 -12 -2 -15 2 -3 7 2 10 11 7 17 1 20 -8 4z"/>
<path d="M7830 2256 c0 -2 8 -10 18 -17 15 -13 16 -12 3 4 -13 16 -21 21 -21
13z"/>
<path d="M5470 2201 c0 -6 4 -13 10 -16 6 -3 7 1 4 9 -7 18 -14 21 -14 7z"/>
<path d="M5713 2165 c0 -8 4 -12 9 -9 5 3 6 10 3 15 -9 13 -12 11 -12 -6z"/>
<path d="M5745 2120 c-3 -6 1 -7 9 -4 18 7 21 14 7 14 -6 0 -13 -4 -16 -10z"/>
<path d="M5595 2040 c3 -5 8 -10 11 -10 2 0 4 5 4 10 0 6 -5 10 -11 10 -5 0
-7 -4 -4 -10z"/>
<path d="M7910 1960 c0 -5 5 -10 11 -10 5 0 7 5 4 10 -3 6 -8 10 -11 10 -2 0
-4 -4 -4 -10z"/>
<path d="M6229 1923 c-13 -16 -12 -17 4 -4 16 13 21 21 13 21 -2 0 -10 -8 -17
-17z"/>
<path d="M5795 1761 c-3 -5 -2 -12 3 -15 5 -3 9 1 9 9 0 17 -3 19 -12 6z"/>
<path d="M6116 1682 c-3 -5 1 -9 9 -9 8 0 12 4 9 9 -3 4 -7 8 -9 8 -2 0 -6 -4
-9 -8z"/>
<path d="M6915 1611 c-3 -5 -2 -12 3 -15 5 -3 9 1 9 9 0 17 -3 19 -12 6z"/>
<path d="M7580 1566 c0 -2 8 -10 18 -17 15 -13 16 -12 3 4 -13 16 -21 21 -21
13z"/>
</g>
</svg>
